<svg xmlns="http://www.w3.org/2000/svg" viewBox="0 0 800 800" width="800" height="800">
  <path fill="#0E5AA7" d="M400 0C179.1 0 0 179.1 0 400s179.1 400 400 400 400-179.1 400-400S620.9 0 400 0z"/>
  <path fill="#FFFFFF" d="M400 100c-165.7 0-300 134.3-300 300s134.3 300 300 300 300-134.3 300-300-134.3-300-300-300zm0 520c-121.5 0-220-98.5-220-220s98.5-220 220-220 220 98.5 220 220-98.5 220-220 220z"/>
  <path fill="#FFFFFF" d="M400 250c-82.8 0-150 67.2-150 150s67.2 150 150 150 150-67.2 150-150-67.2-150-150-150z"/>
</svg>